<mxfile host="Electron" agent="Mozilla/5.0 (X11; Linux x86_64) AppleWebKit/537.36 (KHTML, like Gecko) draw.io/26.2.2 Chrome/134.0.6998.178 Electron/35.1.2 Safari/537.36" version="26.2.2">
  <diagram name="Page-1" id="Nq8jX7YhTqlW4h7WryN_">
    <mxGraphModel dx="1178" dy="722" grid="1" gridSize="10" guides="1" tooltips="1" connect="1" arrows="1" fold="1" page="1" pageScale="1" pageWidth="850" pageHeight="1100" math="0" shadow="0">
      <root>
        <mxCell id="0" />
        <mxCell id="1" parent="0" />
        <mxCell id="_WhcaMk27eqkP7fr3nC9-20" style="edgeStyle=none;shape=connector;rounded=0;orthogonalLoop=1;jettySize=auto;html=1;exitX=1;exitY=0.5;exitDx=0;exitDy=0;entryX=0;entryY=0.5;entryDx=0;entryDy=0;strokeColor=default;align=center;verticalAlign=middle;fontFamily=Helvetica;fontSize=11;fontColor=default;labelBackgroundColor=default;endArrow=classic;flowAnimation=1;startArrow=classic;startFill=1;" edge="1" parent="1" source="_WhcaMk27eqkP7fr3nC9-2" target="_WhcaMk27eqkP7fr3nC9-3">
          <mxGeometry relative="1" as="geometry" />
        </mxCell>
        <mxCell id="_WhcaMk27eqkP7fr3nC9-28" style="edgeStyle=none;shape=connector;rounded=0;orthogonalLoop=1;jettySize=auto;html=1;exitX=0;exitY=0;exitDx=0;exitDy=0;entryX=1;entryY=1;entryDx=0;entryDy=0;strokeColor=default;align=center;verticalAlign=middle;fontFamily=Helvetica;fontSize=11;fontColor=default;labelBackgroundColor=default;endArrow=classic;flowAnimation=1;" edge="1" parent="1" source="_WhcaMk27eqkP7fr3nC9-2" target="_WhcaMk27eqkP7fr3nC9-26">
          <mxGeometry relative="1" as="geometry" />
        </mxCell>
        <mxCell id="_WhcaMk27eqkP7fr3nC9-2" value="VK" style="ellipse;whiteSpace=wrap;html=1;aspect=fixed;" vertex="1" parent="1">
          <mxGeometry x="385" y="400" width="80" height="80" as="geometry" />
        </mxCell>
        <mxCell id="_WhcaMk27eqkP7fr3nC9-23" style="edgeStyle=none;shape=connector;rounded=0;orthogonalLoop=1;jettySize=auto;html=1;exitX=1;exitY=0.5;exitDx=0;exitDy=0;strokeColor=default;align=center;verticalAlign=middle;fontFamily=Helvetica;fontSize=11;fontColor=default;labelBackgroundColor=default;endArrow=classic;flowAnimation=1;" edge="1" parent="1" source="_WhcaMk27eqkP7fr3nC9-3">
          <mxGeometry relative="1" as="geometry">
            <mxPoint x="720" y="439.9047619047618" as="targetPoint" />
          </mxGeometry>
        </mxCell>
        <mxCell id="_WhcaMk27eqkP7fr3nC9-31" style="edgeStyle=none;shape=connector;rounded=0;orthogonalLoop=1;jettySize=auto;html=1;exitX=0.5;exitY=0;exitDx=0;exitDy=0;entryX=0.5;entryY=1;entryDx=0;entryDy=0;strokeColor=default;align=center;verticalAlign=middle;fontFamily=Helvetica;fontSize=11;fontColor=default;labelBackgroundColor=default;endArrow=classic;flowAnimation=1;" edge="1" parent="1" source="_WhcaMk27eqkP7fr3nC9-3" target="_WhcaMk27eqkP7fr3nC9-30">
          <mxGeometry relative="1" as="geometry" />
        </mxCell>
        <mxCell id="_WhcaMk27eqkP7fr3nC9-3" value="VK" style="ellipse;whiteSpace=wrap;html=1;aspect=fixed;" vertex="1" parent="1">
          <mxGeometry x="600" y="400" width="80" height="80" as="geometry" />
        </mxCell>
        <mxCell id="_WhcaMk27eqkP7fr3nC9-19" style="edgeStyle=none;shape=connector;rounded=0;orthogonalLoop=1;jettySize=auto;html=1;exitX=1;exitY=0.5;exitDx=0;exitDy=0;entryX=0;entryY=0.5;entryDx=0;entryDy=0;strokeColor=default;align=center;verticalAlign=middle;fontFamily=Helvetica;fontSize=11;fontColor=default;labelBackgroundColor=default;endArrow=classic;flowAnimation=1;startArrow=classic;startFill=1;" edge="1" parent="1" source="_WhcaMk27eqkP7fr3nC9-4" target="_WhcaMk27eqkP7fr3nC9-2">
          <mxGeometry relative="1" as="geometry" />
        </mxCell>
        <mxCell id="_WhcaMk27eqkP7fr3nC9-22" style="edgeStyle=none;shape=connector;rounded=0;orthogonalLoop=1;jettySize=auto;html=1;exitX=0;exitY=0.5;exitDx=0;exitDy=0;strokeColor=default;align=center;verticalAlign=middle;fontFamily=Helvetica;fontSize=11;fontColor=default;labelBackgroundColor=default;endArrow=classic;flowAnimation=1;" edge="1" parent="1" source="_WhcaMk27eqkP7fr3nC9-4">
          <mxGeometry relative="1" as="geometry">
            <mxPoint x="120" y="439.9047619047618" as="targetPoint" />
          </mxGeometry>
        </mxCell>
        <mxCell id="_WhcaMk27eqkP7fr3nC9-27" style="edgeStyle=none;shape=connector;rounded=0;orthogonalLoop=1;jettySize=auto;html=1;exitX=1;exitY=0;exitDx=0;exitDy=0;entryX=0;entryY=1;entryDx=0;entryDy=0;strokeColor=default;align=center;verticalAlign=middle;fontFamily=Helvetica;fontSize=11;fontColor=default;labelBackgroundColor=default;endArrow=classic;flowAnimation=1;" edge="1" parent="1" source="_WhcaMk27eqkP7fr3nC9-4" target="_WhcaMk27eqkP7fr3nC9-26">
          <mxGeometry relative="1" as="geometry" />
        </mxCell>
        <mxCell id="_WhcaMk27eqkP7fr3nC9-4" value="VK" style="ellipse;whiteSpace=wrap;html=1;aspect=fixed;" vertex="1" parent="1">
          <mxGeometry x="170" y="400" width="80" height="80" as="geometry" />
        </mxCell>
        <mxCell id="_WhcaMk27eqkP7fr3nC9-7" style="rounded=0;orthogonalLoop=1;jettySize=auto;html=1;exitX=0.75;exitY=0;exitDx=0;exitDy=0;entryX=0.5;entryY=1;entryDx=0;entryDy=0;flowAnimation=1;" edge="1" parent="1" source="_WhcaMk27eqkP7fr3nC9-5" target="_WhcaMk27eqkP7fr3nC9-2">
          <mxGeometry relative="1" as="geometry" />
        </mxCell>
        <mxCell id="_WhcaMk27eqkP7fr3nC9-5" value="Leaf" style="whiteSpace=wrap;html=1;aspect=fixed;" vertex="1" parent="1">
          <mxGeometry x="330" y="550" width="80" height="80" as="geometry" />
        </mxCell>
        <mxCell id="_WhcaMk27eqkP7fr3nC9-8" style="rounded=0;orthogonalLoop=1;jettySize=auto;html=1;exitX=0.25;exitY=0;exitDx=0;exitDy=0;entryX=0.5;entryY=1;entryDx=0;entryDy=0;flowAnimation=1;" edge="1" parent="1" source="_WhcaMk27eqkP7fr3nC9-6" target="_WhcaMk27eqkP7fr3nC9-2">
          <mxGeometry relative="1" as="geometry">
            <mxPoint x="430" y="480" as="targetPoint" />
          </mxGeometry>
        </mxCell>
        <mxCell id="_WhcaMk27eqkP7fr3nC9-6" value="Leaf" style="whiteSpace=wrap;html=1;aspect=fixed;" vertex="1" parent="1">
          <mxGeometry x="440" y="550" width="80" height="80" as="geometry" />
        </mxCell>
        <mxCell id="_WhcaMk27eqkP7fr3nC9-11" style="edgeStyle=none;shape=connector;rounded=0;orthogonalLoop=1;jettySize=auto;html=1;exitX=0.5;exitY=0;exitDx=0;exitDy=0;entryX=0.5;entryY=1;entryDx=0;entryDy=0;strokeColor=default;align=center;verticalAlign=middle;fontFamily=Helvetica;fontSize=11;fontColor=default;labelBackgroundColor=default;endArrow=classic;flowAnimation=1;" edge="1" parent="1" source="_WhcaMk27eqkP7fr3nC9-9" target="_WhcaMk27eqkP7fr3nC9-4">
          <mxGeometry relative="1" as="geometry" />
        </mxCell>
        <mxCell id="_WhcaMk27eqkP7fr3nC9-24" style="edgeStyle=none;shape=connector;rounded=0;orthogonalLoop=1;jettySize=auto;html=1;exitX=0.5;exitY=1;exitDx=0;exitDy=0;strokeColor=default;align=center;verticalAlign=middle;fontFamily=Helvetica;fontSize=11;fontColor=default;labelBackgroundColor=default;endArrow=none;flowAnimation=1;startArrow=classic;startFill=1;" edge="1" parent="1" source="_WhcaMk27eqkP7fr3nC9-9">
          <mxGeometry relative="1" as="geometry">
            <mxPoint x="249.85714285714278" y="690" as="targetPoint" />
          </mxGeometry>
        </mxCell>
        <mxCell id="_WhcaMk27eqkP7fr3nC9-9" value="&lt;div&gt;Child&lt;/div&gt;VK" style="ellipse;whiteSpace=wrap;html=1;aspect=fixed;" vertex="1" parent="1">
          <mxGeometry x="210" y="550" width="80" height="80" as="geometry" />
        </mxCell>
        <mxCell id="_WhcaMk27eqkP7fr3nC9-13" style="edgeStyle=none;shape=connector;rounded=0;orthogonalLoop=1;jettySize=auto;html=1;exitX=0.5;exitY=0;exitDx=0;exitDy=0;entryX=0.5;entryY=1;entryDx=0;entryDy=0;strokeColor=default;align=center;verticalAlign=middle;fontFamily=Helvetica;fontSize=11;fontColor=default;labelBackgroundColor=default;endArrow=classic;flowAnimation=1;" edge="1" parent="1" source="_WhcaMk27eqkP7fr3nC9-12" target="_WhcaMk27eqkP7fr3nC9-3">
          <mxGeometry relative="1" as="geometry" />
        </mxCell>
        <mxCell id="_WhcaMk27eqkP7fr3nC9-12" value="&lt;div&gt;Child&lt;/div&gt;VK" style="ellipse;whiteSpace=wrap;html=1;aspect=fixed;" vertex="1" parent="1">
          <mxGeometry x="600" y="550" width="80" height="80" as="geometry" />
        </mxCell>
        <mxCell id="_WhcaMk27eqkP7fr3nC9-15" style="edgeStyle=none;shape=connector;rounded=0;orthogonalLoop=1;jettySize=auto;html=1;exitX=0.5;exitY=0;exitDx=0;exitDy=0;entryX=0.5;entryY=1;entryDx=0;entryDy=0;strokeColor=default;align=center;verticalAlign=middle;fontFamily=Helvetica;fontSize=11;fontColor=default;labelBackgroundColor=default;endArrow=classic;flowAnimation=1;" edge="1" parent="1" source="_WhcaMk27eqkP7fr3nC9-14" target="_WhcaMk27eqkP7fr3nC9-4">
          <mxGeometry relative="1" as="geometry" />
        </mxCell>
        <mxCell id="_WhcaMk27eqkP7fr3nC9-14" value="Leaf" style="whiteSpace=wrap;html=1;aspect=fixed;" vertex="1" parent="1">
          <mxGeometry x="120" y="550" width="80" height="80" as="geometry" />
        </mxCell>
        <mxCell id="_WhcaMk27eqkP7fr3nC9-29" style="edgeStyle=none;shape=connector;rounded=0;orthogonalLoop=1;jettySize=auto;html=1;exitX=0.5;exitY=0;exitDx=0;exitDy=0;strokeColor=default;align=center;verticalAlign=middle;fontFamily=Helvetica;fontSize=11;fontColor=default;labelBackgroundColor=default;endArrow=classic;flowAnimation=1;" edge="1" parent="1" source="_WhcaMk27eqkP7fr3nC9-26">
          <mxGeometry relative="1" as="geometry">
            <mxPoint x="320" y="250" as="targetPoint" />
          </mxGeometry>
        </mxCell>
        <mxCell id="_WhcaMk27eqkP7fr3nC9-26" value="VK" style="ellipse;whiteSpace=wrap;html=1;aspect=fixed;" vertex="1" parent="1">
          <mxGeometry x="280" y="300" width="80" height="80" as="geometry" />
        </mxCell>
        <mxCell id="_WhcaMk27eqkP7fr3nC9-30" value="VK" style="ellipse;whiteSpace=wrap;html=1;aspect=fixed;" vertex="1" parent="1">
          <mxGeometry x="600" y="300" width="80" height="80" as="geometry" />
        </mxCell>
      </root>
    </mxGraphModel>
  </diagram>
</mxfile>
